# xmcd
#
# Track frame offsets:
#	150
#	20103
#	35511
#	61724
#	84993
#	101696
#	118384
#	148445
#	172192
#	188243
#
# Disc length: 2804 seconds
# Revision: 1
# Processed by: cddbd v1.5.2PL0 Copyright (c) Steve Scherf et al.
# Submitted via: dBpowerAMP V12.0
#
DISCID=930af20a
DTITLE=Rob Berry -  Waitin on Good Luck
DYEAR=2018
DGENRE=Blues
TTITLE0=Hey Bad Luck
TTITLE1=Help Me
TTITLE2=Freedom
TTITLE3=Another Day
TTITLE4=Pride and Joy
TTITLE5=Damnation
TTITLE6=Like a Rolling Stone
TTITLE7=All Along The Watchtower
TTITLE8=Rock and Roll
TTITLE9=When I Think of You
EXTD=
EXTT0=
EXTT1=
EXTT2=
EXTT3=
EXTT4=
EXTT5=
EXTT6=
EXTT7=
EXTT8=
EXTT9=
PLAYORDER=
